<?xml version="1.0" encoding="UTF-8"?><svg id="Layer_1" xmlns="http://www.w3.org/2000/svg" viewBox="0 0 651.46 281.15"><defs><style>.cls-1{fill:#925c4a;}</style></defs><path class="cls-1" d="M140.58,0C62.94,0,0,62.94,0,140.58c0,59.83,37.4,110.9,90.08,131.19,45.14-15.35,50.19-66.1,50.5-68.94h0c.65,3.32,11.65,49.21-1,78.3.34,0,.67.03,1,.03,77.64,0,140.58-62.94,140.58-140.58S218.21,0,140.58,0ZM174.21,215.73c-12.93,0-24.72-4.88-33.63-12.9,9.93,0,20.31-3.16,29.03-9.48,8.73-6.32,14.74-15.05,17.9-24.68-10.07,0-20.31,3.01-28.89,9.33,3.32-10.23,3.01-20.91-.15-30.39-8.12,5.86-14.59,14.29-17.9,24.52-3.31-10.22-9.78-18.65-17.9-24.52-3.16,9.48-3.47,20.16-.15,30.39-8.58-6.32-18.81-9.33-28.89-9.33,3.16,9.63,9.17,18.36,17.9,24.68,8.73,6.32,19.11,9.48,29.03,9.48-8.91,8.02-20.7,12.9-33.63,12.9-27.79,0-50.31-22.53-50.31-50.31,0-21.96,14.07-40.62,33.69-47.49-.03-.73-.06-1.46-.06-2.19,0-27.79,22.53-50.31,50.31-50.31s50.31,22.53,50.31,50.31c0,.74-.02,1.47-.06,2.19,19.62,6.87,33.69,25.53,33.69,47.49,0,27.79-22.53,50.31-50.31,50.31Z"/><path class="cls-1" d="M479.1,217.39c-2.19-1.49-4.9-2.38-7.69-2.38-4.48,0-7.51,2.75-7.51,7.18s3.03,7.18,7.46,7.18c2.84,0,5.55-.89,7.74-2.43v5.97c-2,1.35-4.9,2.1-7.97,2.1-7.6,0-13.29-5.45-13.29-12.82s5.78-12.82,13.34-12.82c3.08,0,5.92.65,7.93,2.05v5.97Z"/><path class="cls-1" d="M500.57,222.19c0-4.29-3.12-7.18-7.13-7.18s-7.04,2.89-7.04,7.18,3.08,7.18,7.04,7.18,7.13-2.98,7.13-7.18M480.38,222.19c0-7.46,5.55-12.82,13.06-12.82s13.1,5.36,13.1,12.82-5.55,12.82-13.1,12.82-13.06-5.55-13.06-12.82"/><path class="cls-1" d="M518.12,235.06c-4.38,0-7.88-1.73-7.88-7.97v-11.98h-3.73v-1.49l8.39-8.39h1.35v4.62h8.25v5.27h-8.25v11.19c0,2.47,1.35,3.31,3.5,3.31,1.91,0,3.73-.56,4.8-1.12v5.04c-1.4.84-3.54,1.54-6.44,1.54"/><path class="cls-1" d="M536.68,235.06c-4.38,0-7.88-1.73-7.88-7.97v-11.98h-3.73v-1.49l8.39-8.39h1.35v4.62h8.25v5.27h-8.25v11.19c0,2.47,1.35,3.31,3.5,3.31,1.91,0,3.73-.56,4.8-1.12v5.04c-1.4.84-3.54,1.54-6.44,1.54"/><path class="cls-1" d="M564.07,222.19c0-4.29-3.12-7.18-7.13-7.18s-7.04,2.89-7.04,7.18,3.08,7.18,7.04,7.18,7.13-2.98,7.13-7.18M543.88,222.19c0-7.46,5.55-12.82,13.06-12.82s13.1,5.36,13.1,12.82-5.55,12.82-13.1,12.82-13.06-5.55-13.06-12.82"/><path class="cls-1" d="M578.53,216.74v17.81h-6.01v-24.71h5.64v3.03c2-1.77,5.22-3.5,9.14-3.5,5.78,0,8.44,3.64,8.44,9.33v15.85h-6.01v-14.32c0-3.17-1.63-5.04-4.99-5.04-2.38,0-4.62.75-6.2,1.54"/><path class="cls-1" d="M317.82,247.44c0-2.01,1.59-3.17,4.1-3.17s4.1,1.17,4.1,3.17-1.54,3.22-4.1,3.22-4.1-1.21-4.1-3.22ZM324.91,253.5v24.71h-6.02v-24.71h6.02Z"/><path class="cls-1" d="M335.35,260.4v17.81h-6.02v-24.71h5.64v3.03c2.01-1.77,5.22-3.5,9.14-3.5,5.78,0,8.44,3.64,8.44,9.33v15.85h-6.02v-14.32c0-3.17-1.63-5.04-4.99-5.04-2.38,0-4.62.75-6.2,1.54Z"/><path class="cls-1" d="M355.63,247.44c0-2.01,1.59-3.17,4.1-3.17s4.1,1.17,4.1,3.17-1.54,3.22-4.1,3.22-4.1-1.21-4.1-3.22ZM362.72,253.5v24.71h-6.02v-24.71h6.02Z"/><path class="cls-1" d="M376.71,278.73c-4.38,0-7.88-1.73-7.88-7.97v-11.98h-3.73v-1.49l8.39-8.39h1.35v4.62h8.25v5.27h-8.25v11.19c0,2.47,1.35,3.31,3.5,3.31,1.91,0,3.73-.56,4.8-1.12v5.04c-1.4.84-3.54,1.54-6.44,1.54Z"/><path class="cls-1" d="M385.06,247.44c0-2.01,1.59-3.17,4.1-3.17s4.1,1.17,4.1,3.17-1.54,3.22-4.1,3.22-4.1-1.21-4.1-3.22ZM392.15,253.5v24.71h-6.02v-24.71h6.02Z"/><path class="cls-1" d="M405.2,259c-3.68,0-7.32,1.77-9.42,3.87v-6.16c1.63-1.63,5.55-3.68,10.21-3.68,5.78,0,10.59,2.94,10.59,10.63v14.55h-5.6v-2.75c-1.54,1.68-4.2,3.22-7.6,3.22-4.94,0-8.02-2.47-8.02-6.85s4.29-7.51,10.12-7.51c2.29,0,4.06.42,5.13.89v-1.26c0-3.5-2.38-4.94-5.41-4.94ZM410.61,272.25v-3.4c-1.07-.33-2.47-.51-3.78-.51-3.73,0-5.92,1.17-5.92,3.17s1.54,2.61,3.59,2.61c2.19,0,4.57-.79,6.11-1.87Z"/><path class="cls-1" d="M429.73,278.73c-4.38,0-7.88-1.73-7.88-7.97v-11.98h-3.73v-1.49l8.39-8.39h1.35v4.62h8.25v5.27h-8.25v11.19c0,2.47,1.35,3.31,3.5,3.31,1.91,0,3.73-.56,4.8-1.12v5.04c-1.4.84-3.54,1.54-6.44,1.54Z"/><path class="cls-1" d="M438.55,247.44c0-2.01,1.59-3.17,4.1-3.17s4.1,1.17,4.1,3.17-1.54,3.22-4.1,3.22-4.1-1.21-4.1-3.22ZM445.63,253.5v24.71h-6.02v-24.71h6.02Z"/><path class="cls-1" d="M447.13,253.5h6.53l6.9,19.49,6.81-19.49h6.44l-9.79,24.71h-7.09l-9.79-24.71Z"/><path class="cls-1" d="M486.72,278.68c-7.83,0-13.15-4.57-13.15-12.82s4.8-12.82,12.03-12.82,10.82,4.38,10.82,11.75v2.8h-16.74c.42,3.64,2.89,5.46,7.74,5.46,3.45,0,6.71-1.03,8.63-2.05v5.27c-1.73,1.35-5.55,2.42-9.33,2.42ZM479.63,263.71h10.91c-.05-3.36-1.68-5.6-5.32-5.6-3.45,0-5.36,2.24-5.6,5.6Z"/><path class="cls-1" d="M324.9,211.47c1.68-1.12,4.15-2.1,7.09-2.1,5.74,0,10.54,3.96,10.54,12.26,0,9.37-6.48,13.38-13.29,13.38-4.57,0-7.79-1.17-10.35-2.1v-30.45l6.02-.84v9.84ZM336.33,222.01c0-4.99-2.84-7.13-6.16-7.13-2.05,0-3.96.61-5.27,1.26v12.92c1.12.33,2.47.61,4.01.61,4.1,0,7.41-1.82,7.41-7.65Z"/><path class="cls-1" d="M357.36,235.02c-7.83,0-13.15-4.57-13.15-12.82s4.8-12.82,12.03-12.82,10.82,4.38,10.82,11.75v2.8h-16.74c.42,3.64,2.89,5.46,7.74,5.46,3.45,0,6.71-1.03,8.63-2.05v5.27c-1.73,1.35-5.55,2.42-9.33,2.42ZM350.27,220.05h10.91c-.05-3.36-1.68-5.6-5.32-5.6-3.45,0-5.36,2.24-5.6,5.6Z"/><path class="cls-1" d="M419.24,235.02c-7.83,0-13.15-4.57-13.15-12.82s4.8-12.82,12.03-12.82,10.82,4.38,10.82,11.75v2.8h-16.74c.42,3.64,2.89,5.46,7.74,5.46,3.45,0,6.71-1.03,8.63-2.05v5.27c-1.73,1.35-5.55,2.42-9.33,2.42ZM412.15,220.05h10.91c-.05-3.36-1.68-5.6-5.32-5.6s-5.36,2.24-5.6,5.6Z"/><path class="cls-1" d="M437.52,209.83v3.22c1.87-1.82,4.85-3.68,8.11-3.68.93,0,1.82.19,2.61.56v6.39c-1.12-.65-2.75-1.12-4.62-1.12-2.15,0-4.24.84-5.74,1.68v17.67h-6.02v-24.71h5.64Z"/><path class="cls-1" d="M379.56,235.06c-4.38,0-7.88-1.73-7.88-7.97v-11.98h-3.73v-1.49l8.39-8.39h1.35v4.62h8.25v5.27h-8.25v11.19c0,2.47,1.35,3.31,3.5,3.31,1.91,0,3.73-.56,4.8-1.12v5.04c-1.4.84-3.54,1.54-6.44,1.54"/><path class="cls-1" d="M398.11,235.06c-4.38,0-7.88-1.73-7.88-7.97v-11.98h-3.73v-1.49l8.39-8.39h1.35v4.62h8.25v5.27h-8.25v11.19c0,2.47,1.35,3.31,3.5,3.31,1.91,0,3.73-.56,4.8-1.12v5.04c-1.4.84-3.54,1.54-6.44,1.54"/><path class="cls-1" d="M349.09,82.98v64.74c5.61,1.64,12.39,3.04,20.1,3.04,20.56,0,37.16-9.12,37.16-38.33,0-25.01-14.26-35.77-30.86-35.77-10.28,0-19.86,3.04-26.41,6.31M349.09,59.6c8.41-5.61,20.8-10.52,35.52-10.52,28.75,0,52.82,19.87,52.82,61.47,0,46.98-32.49,67.07-66.61,67.07-22.91,0-39.03-5.84-51.89-10.51V14.5l30.14-4.21v49.32Z"/><path class="cls-1" d="M550.87,89.29c-10.98-7.48-24.54-11.92-38.57-11.92-22.43,0-37.63,13.78-37.63,35.99s15.2,36,37.4,36c14.26,0,27.81-4.45,38.79-12.16v29.92c-10.05,6.78-24.54,10.51-39.97,10.51-38.1,0-66.61-27.34-66.61-64.27s28.98-64.28,66.84-64.28c15.42,0,29.69,3.28,39.73,10.29v29.92Z"/><path class="cls-1" d="M595.73,175.3h-30.15V51.42h30.15v123.87ZM560.21,21.04c0-10.05,7.94-15.89,20.57-15.89s20.56,5.85,20.56,15.89-7.71,16.13-20.56,16.13-20.57-6.08-20.57-16.13"/><path class="cls-1" d="M611.98,11.99h15.51v4.26h-5.49v14.07h-4.53v-14.07h-5.49v-4.26Z"/><path class="cls-1" d="M633.88,19.21v11.11h-4.53V11.99h6.23l4.82,14.01,4.82-14.01h6.23v18.33h-4.53v-11.11l-4,11.11h-5.06l-4-11.11Z"/></svg>